<?xml version="1.0" encoding="UTF-8" standalone="no"?>
<!-- Created with Inkscape (http://www.inkscape.org/) -->

<svg
   xmlns:dc="http://purl.org/dc/elements/1.1/"
   xmlns:cc="http://creativecommons.org/ns#"
   xmlns:rdf="http://www.w3.org/1999/02/22-rdf-syntax-ns#"
   xmlns:svg="http://www.w3.org/2000/svg"
   xmlns="http://www.w3.org/2000/svg"
   xmlns:sodipodi="http://sodipodi.sourceforge.net/DTD/sodipodi-0.dtd"
   xmlns:inkscape="http://www.inkscape.org/namespaces/inkscape"
   width="210mm"
   height="297mm"
   viewBox="0 0 210 297"
   version="1.1"
   id="svg8"
   inkscape:version="0.92.4 (5da689c313, 2019-01-14)"
   sodipodi:docname="paddle.svg">
  <defs
     id="defs2" />
  <sodipodi:namedview
     id="base"
     pagecolor="#ffffff"
     bordercolor="#666666"
     borderopacity="1.0"
     inkscape:pageopacity="0.0"
     inkscape:pageshadow="2"
     inkscape:zoom="1.979899"
     inkscape:cx="300.81893"
     inkscape:cy="775.53511"
     inkscape:document-units="mm"
     inkscape:current-layer="layer1"
     showgrid="false"
     inkscape:snap-object-midpoints="true"
     inkscape:snap-center="true"
     inkscape:window-width="1920"
     inkscape:window-height="1057"
     inkscape:window-x="-8"
     inkscape:window-y="-8"
     inkscape:window-maximized="1" />
  <metadata
     id="metadata5">
    <rdf:RDF>
      <cc:Work
         rdf:about="">
        <dc:format>image/svg+xml</dc:format>
        <dc:type
           rdf:resource="http://purl.org/dc/dcmitype/StillImage" />
        <dc:title />
      </cc:Work>
    </rdf:RDF>
  </metadata>
  <g
     inkscape:label="Livello 1"
     inkscape:groupmode="layer"
     id="layer1">
    <g
       id="g858"
       inkscape:export-xdpi="96"
       inkscape:export-ydpi="96">
      <rect
         rx="0"
         ry="0"
         y="81.548553"
         x="77.434692"
         height="9.861804"
         width="67.473503"
         id="rect826"
         style="opacity:1;fill:#323232;fill-opacity:1;stroke:#000000;stroke-width:0.25993153;stroke-linecap:butt;stroke-linejoin:round;stroke-miterlimit:4;stroke-dasharray:none;stroke-opacity:1" />
      <path
         inkscape:connector-curvature="0"
         id="path828"
         d="m 77.434691,81.54855 16.07311,-6.809062 h 35.369529 l 16.03088,6.809062 z"
         style="fill:#ffffff;fill-opacity:1;stroke:#000000;stroke-width:0.25993153;stroke-linecap:butt;stroke-linejoin:miter;stroke-miterlimit:4;stroke-dasharray:none;stroke-opacity:1" />
      <path
         inkscape:connector-curvature="0"
         id="path842"
         d="M 77.480382,85.572901 H 144.97172 V 87.44784 H 77.480382 Z"
         style="fill:#ffffff;stroke:#000000;stroke-width:0.24172743px;stroke-linecap:butt;stroke-linejoin:miter;stroke-opacity:1;fill-opacity:1" />
      <path
         inkscape:connector-curvature="0"
         id="path854"
         d="M 93.507804,74.739487 144.9082,81.54855"
         style="fill:none;stroke:#000000;stroke-width:0.26458332px;stroke-linecap:butt;stroke-linejoin:miter;stroke-opacity:1;fill-opacity:1" />
      <path
         inkscape:connector-curvature="0"
         id="path856"
         d="M 128.87733,74.739487 77.434693,81.54855"
         style="fill:none;stroke:#000000;stroke-width:0.26458332px;stroke-linecap:butt;stroke-linejoin:miter;stroke-opacity:1" />
      <path
         transform="scale(0.26458333)"
         inkscape:connector-curvature="0"
         id="path844"
         d="m 483.54634,299.11983 c -37.22664,-4.94437 -57.97704,-7.79859 -57.45243,-7.90259 0.45166,-0.0895 14.34903,-1.94878 30.88304,-4.13165 l 30.06185,-3.96885 27.76939,11.79566 c 15.27316,6.48761 27.81674,11.84135 27.87461,11.89719 0.19474,0.18793 -0.72693,0.0681 -59.13646,-7.68976 z"
         style="opacity:1;fill:#eeb5a3;fill-opacity:1;stroke:#000000;stroke-width:0.25253814;stroke-linecap:butt;stroke-linejoin:round;stroke-miterlimit:4;stroke-dasharray:none;stroke-opacity:1" />
      <path
         transform="scale(0.26458333)"
         inkscape:connector-curvature="0"
         id="path846"
         d="m 297.75587,306.82818 c 0.0771,-0.0855 12.63461,-5.45496 27.90546,-11.93206 l 27.76519,-11.77655 30.05203,3.95003 c 16.52862,2.17251 30.43395,4.03163 30.90072,4.13138 0.586,0.12522 -17.11856,2.55515 -57.19989,7.85059 -31.92671,4.21808 -58.38949,7.72838 -58.80618,7.80067 -0.41669,0.0723 -0.69449,0.0615 -0.61733,-0.0241 z"
         style="opacity:1;fill:#323232;fill-opacity:1;stroke:#000000;stroke-width:0.25253814;stroke-linecap:butt;stroke-linejoin:round;stroke-miterlimit:4;stroke-dasharray:none;stroke-opacity:1" />
      <path
         transform="scale(0.26458333)"
         inkscape:connector-curvature="0"
         id="path848"
         d="m 536.26413,305.87004 c -1.94455,-0.2654 -18.13856,-2.4178 -35.98669,-4.78312 -29.12566,-3.85987 -53.08589,-7.08039 -66.85947,-8.98663 -2.67375,-0.37004 -4.86136,-0.75104 -4.86136,-0.84666 0,-0.0956 0.93755,-0.29092 2.08344,-0.434 1.14589,-0.14309 14.30012,-1.87982 29.23161,-3.85942 l 27.14817,-3.59926 26.26365,11.17619 c 31.34607,13.33896 27.93764,11.85339 27.14753,11.83229 -0.34724,-0.009 -2.22234,-0.234 -4.16688,-0.49939 z"
         style="opacity:1;fill:#323232;fill-opacity:1;stroke:#000000;stroke-width:0.25253814;stroke-linecap:butt;stroke-linejoin:round;stroke-miterlimit:4;stroke-dasharray:none;stroke-opacity:1" />
    </g>
  </g>
</svg>
